<?xml version="1.0" ?><svg id="Layer_2" style="enable-background:new 0 0 32 32;" version="1.1" viewBox="0 0 32 32" xml:space="preserve" xmlns="http://www.w3.org/2000/svg" xmlns:xlink="http://www.w3.org/1999/xlink"><g><path d="M24.78003,17.98999c-0.58002-0.59003-1.53003-0.59003-2.12006,0l-1.26996,1.27002L19.92999,17.81   C23.13,13.57996,22.81,7.51996,18.96002,3.66998C16.90997,1.62,14.20001,0.5,11.31,0.5S5.71002,1.62,3.66998,3.66998   C1.62,5.70996,0.5,8.41998,0.5,11.31s1.12,5.59998,3.16998,7.64996C5.77002,21.06,8.53998,22.12,11.31,22.12   c2.29999,0,4.58002-0.73999,6.5-2.19l1.45001,1.46002l-1.27002,1.26996c-0.58997,0.59003-0.58997,1.54004,0,2.12l5.31,5.32001   c0.94,0.92999,2.16998,1.40002,3.40002,1.40002c1.22998,0,2.45996-0.47003,3.39996-1.40002   c0.94-0.94,1.40002-2.16998,1.40002-3.39996c0-1.23004-0.46002-2.46002-1.40002-3.40002L24.78003,17.98999z M16.83002,16.82996   c-3.04004,3.05005-8,3.05005-11.04004,0C4.31,15.35999,3.5,13.39996,3.5,11.31c0-2.09003,0.81-4.04999,2.28998-5.52002   C7.26001,4.31,9.21997,3.5,11.31,3.5s4.04999,0.81,5.52002,2.28998C19.88,8.82996,19.88,13.78998,16.83002,16.82996z"/></g></svg>